<svg width="26" height="24" viewBox="0 0 26 24" fill="none" xmlns="http://www.w3.org/2000/svg">
<path d="M6.65815 7.68856C7.66074 7.68856 8.4735 6.8758 8.4735 5.87321C8.4735 4.87062 7.66074 4.05786 6.65815 4.05786C5.65556 4.05786 4.8428 4.87062 4.8428 5.87321C4.8428 6.8758 5.65556 7.68856 6.65815 7.68856Z" fill="#F1F1F1"/>
<path d="M6.65817 6.57617C7.04643 6.57617 7.36118 6.26143 7.36118 5.87317C7.36118 5.48491 7.04643 5.17017 6.65817 5.17017C6.26991 5.17017 5.95517 5.48491 5.95517 5.87317C5.95517 6.26143 6.26991 6.57617 6.65817 6.57617Z" fill="#F1F1F1"/>
<path d="M18.6448 7.68856C19.6474 7.68856 20.4602 6.8758 20.4602 5.87321C20.4602 4.87062 19.6474 4.05786 18.6448 4.05786C17.6422 4.05786 16.8295 4.87062 16.8295 5.87321C16.8295 6.8758 17.6422 7.68856 18.6448 7.68856Z" fill="#F1F1F1"/>
<path d="M18.6448 6.57617C19.0331 6.57617 19.3478 6.26143 19.3478 5.87317C19.3478 5.48491 19.0331 5.17017 18.6448 5.17017C18.2565 5.17017 17.9418 5.48491 17.9418 5.87317C17.9418 6.26143 18.2565 6.57617 18.6448 6.57617Z" fill="#F1F1F1"/>
<path d="M6.65815 19.6485C7.66074 19.6485 8.4735 18.8358 8.4735 17.8332C8.4735 16.8306 7.66074 16.0178 6.65815 16.0178C5.65556 16.0178 4.8428 16.8306 4.8428 17.8332C4.8428 18.8358 5.65556 19.6485 6.65815 19.6485Z" fill="#F1F1F1"/>
<path d="M6.65817 18.5361C7.04643 18.5361 7.36118 18.2214 7.36118 17.8331C7.36118 17.4449 7.04643 17.1301 6.65817 17.1301C6.26991 17.1301 5.95517 17.4449 5.95517 17.8331C5.95517 18.2214 6.26991 18.5361 6.65817 18.5361Z" fill="#F1F1F1"/>
<path d="M18.6448 19.6485C19.6474 19.6485 20.4602 18.8358 20.4602 17.8332C20.4602 16.8306 19.6474 16.0178 18.6448 16.0178C17.6422 16.0178 16.8295 16.8306 16.8295 17.8332C16.8295 18.8358 17.6422 19.6485 18.6448 19.6485Z" fill="#F1F1F1"/>
<path d="M18.6448 18.5361C19.0331 18.5361 19.3478 18.2214 19.3478 17.8331C19.3478 17.4449 19.0331 17.1301 18.6448 17.1301C18.2565 17.1301 17.9418 17.4449 17.9418 17.8331C17.9418 18.2214 18.2565 18.5361 18.6448 18.5361Z" fill="#F1F1F1"/>
<path d="M17.0519 2.98109L14.765 0.694105L15.1298 0.329255L17.4168 2.61624L17.4791 2.85651L17.0519 2.98109ZM17.4168 2.61624L17.5147 2.71413L17.4791 2.85651L17.4168 2.61624ZM3.43682 16.5873L3.80167 16.2225L3.54361 16.1602L4.13982 15.9644L4.72714 15.7508L5.31446 15.5284L5.88399 15.2881L6.44461 15.0389L7.00523 14.7809L7.54806 14.5139L8.08198 14.2291L8.59811 13.9266L9.11424 13.6151L9.61257 13.2859L10.102 12.9477L10.5825 12.5918L11.0453 12.2269L11.4991 11.8443L11.9352 11.4438L12.3623 11.0256L12.7805 10.5984L13.1721 10.1535L13.5636 9.69077L13.9374 9.21023L14.2933 8.7119L14.6315 8.19577L14.9607 7.66185L15.2722 7.11012L15.5659 6.5406L15.8417 5.95328L16.1087 5.34817L16.3489 4.72525L16.5803 4.08454L16.7939 3.41713L16.9808 2.73192L17.4791 2.85651L17.2833 3.55951L17.0697 4.24472L16.8295 4.90323L16.5803 5.54394L16.3134 6.16685L16.0286 6.77197L15.7171 7.35929L15.3968 7.91991L15.0675 8.47164L14.7116 8.99666L14.3467 9.51279L13.9641 10.0111L13.5636 10.4828L13.1543 10.9455L12.7271 11.3904L12.2911 11.8176L11.8373 12.2269L11.3656 12.6185L10.894 13.0011L10.4046 13.366L9.89733 13.713L9.3812 14.0512L8.86508 14.3715L8.32225 14.6741L7.77942 14.9677L7.2277 15.2436L6.65818 15.5106L6.07976 15.7597L5.50134 16L4.90512 16.2314L4.3089 16.4449L3.69489 16.6496L3.43682 16.5873ZM3.69489 16.6496L3.55251 16.6941L3.43682 16.5873L3.69489 16.6496ZM1.52358 13.9444L3.80167 16.2225L3.43682 16.5873L1.15873 14.3092L1.27442 13.8732L1.52358 13.9444ZM1.15873 14.3092L0.838379 13.9889L1.27442 13.8732L1.15873 14.3092ZM15.1298 0.329255L14.765 0.694105L15.201 0.569522L15.023 1.29922L14.8362 2.01112L14.6226 2.70523L14.3912 3.37264L14.1332 4.02225L13.8662 4.64516L13.5814 5.25028L13.27 5.8376L12.9496 6.39822L12.6115 6.94105L12.2555 7.46607L11.8729 7.9733L11.4902 8.45384L11.0809 8.92547L10.6626 9.37041L10.2177 9.79755L9.77275 10.2069L9.30112 10.5984L8.82058 10.9722L8.32225 11.3281L7.81502 11.6752L7.28999 11.9956L6.75606 12.2981L6.21324 12.5918L5.65262 12.8676L5.0742 13.1257L4.49578 13.366L3.89956 13.5973L3.28554 13.8109L2.67153 14.0156L2.03971 14.2024L1.4079 14.3715L1.27442 13.8732L1.90623 13.7041L2.52025 13.5261L3.12536 13.3215L3.72158 13.1168L4.3 12.8943L4.86952 12.6541L5.43015 12.4049L5.98187 12.129L6.5069 11.8532L7.03193 11.5506L7.53916 11.2392L8.02859 10.9099L8.50912 10.5628L8.98076 10.198L9.4346 9.82425L9.87064 9.42381L10.2889 9.00556L10.6982 8.57842L11.0898 8.12458L11.4724 7.66185L11.8284 7.17241L12.1754 6.66518L12.5047 6.14016L12.825 5.58843L13.1187 5.02781L13.3946 4.44049L13.6615 3.82647L13.9018 3.19466L14.1332 2.54505L14.3378 1.87764L14.5247 1.17464L14.7027 0.462736L15.1298 0.329255ZM14.7027 0.462736L14.8006 0L15.1298 0.329255L14.7027 0.462736Z" fill="#F1F1F1"/>
<path fill-rule="evenodd" clip-rule="evenodd" d="M14.9518 0.516113L17.2299 2.7942C15.2455 10.2959 10.102 14.3092 3.62369 16.4004L1.3367 14.1223C8.14426 12.3604 13.2077 8.38263 14.9518 0.516113Z" fill="#F1F1F1"/>
<path d="M3.80166 7.78647L1.52357 10.0735L1.15872 9.7086L3.43681 7.42162L3.68598 7.35933L3.80166 7.78647ZM3.43681 7.42162L3.54359 7.32373L3.68598 7.35933L3.43681 7.42162ZM17.4168 21.4016L17.0519 21.0367L16.9896 21.2948L16.785 20.6986L16.5714 20.1024L16.3489 19.524L16.1176 18.9544L15.8684 18.3938L15.6103 17.8332L15.3345 17.2904L15.0497 16.7564L14.7561 16.2403L14.4446 15.7242L14.1153 15.2258L13.7772 14.7364L13.4212 14.2559L13.0564 13.7931L12.6648 13.3393L12.2644 12.9033L11.8551 12.4761L11.419 12.0579L10.9741 11.6574L10.5113 11.2748L10.0308 10.901L9.53247 10.5451L9.02524 10.2069L8.49131 9.87768L7.93959 9.56622L7.37007 9.27256L6.78275 8.9967L6.17763 8.72974L5.55472 8.48947L4.90511 8.2581L4.2377 8.04453L3.55249 7.85766L3.68598 7.35933L4.38898 7.5551L5.06529 7.76867L5.73269 8.00894L6.37341 8.2581L6.99632 8.52507L7.60144 8.80983L8.17986 9.11238L8.74938 9.43274L9.3011 9.77089L9.82613 10.1268L10.3423 10.4917L10.8317 10.8743L11.3122 11.2748L11.775 11.6841L12.211 12.1113L12.647 12.5473L13.0564 13.0011L13.4479 13.4728L13.8306 13.9444L14.1954 14.4339L14.5425 14.9411L14.8806 15.4483L15.201 15.9733L15.5036 16.5162L15.7972 17.059L16.0731 17.6107L16.34 18.1802L16.5892 18.7498L16.8295 19.3371L17.0608 19.9333L17.2744 20.5295L17.4791 21.1346L17.4168 21.4016ZM17.4791 21.1346L17.5236 21.2859L17.4168 21.4016L17.4791 21.1346ZM14.765 23.3148L17.0519 21.0367L17.4168 21.4016L15.1298 23.6797L14.7027 23.564L14.765 23.3148ZM15.1298 23.6797L14.8183 24L14.7027 23.564L15.1298 23.6797ZM1.15872 9.7086L1.52357 10.0735L1.39899 9.63741L2.12869 9.80649L2.84059 10.0023L3.5347 10.2158L4.2021 10.4472L4.85172 10.7053L5.47463 10.9722L6.07975 11.257L6.66707 11.5684L7.22769 11.8888L7.77051 12.227L8.29554 12.5829L8.80277 12.9567L9.28331 13.3482L9.74604 13.7575L10.1999 14.1758L10.627 14.6207L11.0364 15.0657L11.4279 15.5373L11.8017 16.0178L12.1576 16.5162L12.4958 17.0234L12.825 17.5484L13.1276 18.0824L13.4212 18.6252L13.6882 19.1858L13.9552 19.7642L14.1954 20.3426L14.4268 20.9389L14.6404 21.5529L14.8361 22.1669L15.023 22.7987L15.201 23.4305L14.7027 23.564L14.5336 22.9322L14.3467 22.3182L14.1509 21.7131L13.9463 21.1168L13.7149 20.5384L13.4835 19.9689L13.2255 19.4083L12.9585 18.8565L12.6737 18.3226L12.3801 17.8065L12.0686 17.2993L11.7394 16.8009L11.3923 16.3293L11.0275 15.8577L10.6448 15.4038L10.2533 14.9678L9.83503 14.5495L9.40789 14.1402L8.95405 13.7486L8.48242 13.366L8.00188 13.0011L7.49465 12.663L6.96073 12.3337L6.4179 12.0134L5.84838 11.7197L5.26106 11.4439L4.65594 11.1769L4.02413 10.9366L3.37452 10.7053L2.69821 10.5006L2.00411 10.3048L1.28331 10.1357L1.15872 9.7086ZM1.28331 10.1357L0.829468 10.0379L1.15872 9.7086L1.28331 10.1357Z" fill="#F1F1F1"/>
<path fill-rule="evenodd" clip-rule="evenodd" d="M1.3367 9.88649L3.62369 7.6084C11.1254 9.59283 15.1387 14.7363 17.2299 21.2146L14.9518 23.5016C13.1899 16.694 9.21212 11.6306 1.3367 9.88649Z" fill="#F1F1F1"/>
<path d="M21.8573 7.78647L21.9819 7.35933L22.2221 7.42162L24.5091 9.7086L24.1443 10.0735L21.8573 7.78647ZM21.9819 7.35933L22.1243 7.32373L22.2221 7.42162L21.9819 7.35933ZM8.25106 21.4016L8.18877 21.1346L8.39344 20.5295L8.60701 19.9333L8.83838 19.3371L9.06975 18.7498L9.32781 18.1802L9.59478 17.6107L9.87064 17.059L10.1643 16.5162L10.4669 15.9733L10.7872 15.4483L11.1254 14.9411L11.4724 14.4339L11.8373 13.9444L12.211 13.4728L12.6115 13.0011L13.0208 12.5473L13.4479 12.1113L13.8929 11.6841L14.3556 11.2748L14.8273 10.8743L15.3256 10.4917L15.8417 10.1268L16.3667 9.77089L16.9185 9.43274L17.4791 9.11238L18.0664 8.80983L18.6715 8.52507L19.2944 8.2581L19.9352 8.00894L20.5937 7.76867L21.2789 7.5551L21.9819 7.35933L22.1065 7.85766L21.4212 8.04453L20.7538 8.2581L20.1131 8.48947L19.4902 8.72974L18.8851 8.9967L18.2978 9.27256L17.7283 9.56622L17.1765 9.87768L16.6426 10.2069L16.1265 10.5451L15.6281 10.901L15.1476 11.2748L14.6849 11.6574L14.2399 12.0579L13.8128 12.4761L13.3946 12.9033L12.9941 13.3393L12.6115 13.7931L12.2466 14.2559L11.8907 14.7364L11.5525 15.2258L11.2233 15.7242L10.9118 16.2403L10.6092 16.7564L10.3245 17.2904L10.0575 17.8332L9.79055 18.3938L9.55028 18.9544L9.31001 19.524L9.08755 20.1024L8.87397 20.6986L8.6782 21.2948L8.61591 21.0367L8.25106 21.4016ZM8.25106 21.4016L8.13538 21.2859L8.18877 21.1346L8.25106 21.4016ZM10.894 23.3148L10.9652 23.564L10.5291 23.6797L8.25106 21.4016L8.61591 21.0367L10.894 23.3148ZM10.9652 23.564L10.8495 24L10.5291 23.6797L10.9652 23.564ZM24.5091 9.7086L24.3756 10.1357L23.6637 10.3048L22.9607 10.5006L22.2933 10.7053L21.6348 10.9366L21.0119 11.1769L20.3979 11.4439L19.8106 11.7197L19.2499 12.0134L18.6982 12.3337L18.1732 12.663L17.666 13.0011L17.1765 13.366L16.7138 13.7486L16.26 14.1402L15.8239 14.5495L15.4146 14.9678L15.0141 15.4038L14.6404 15.8577L14.2755 16.3293L13.9285 16.8009L13.5992 17.2993L13.2878 17.8065L12.9852 18.3226L12.7004 18.8565L12.4335 19.4083L12.1843 19.9689L11.9441 20.5384L11.7216 21.1168L11.508 21.7131L11.3122 22.3182L11.1343 22.9322L10.9652 23.564L10.4669 23.4305L10.6359 22.7987L10.8228 22.1669L11.0275 21.5529L11.241 20.9389L11.4724 20.3426L11.7127 19.7642L11.9707 19.1858L12.2466 18.6252L12.5403 18.0824L12.8428 17.5484L13.1632 17.0234L13.5102 16.5162L13.8662 16.0178L14.2399 15.5373L14.6315 15.0657L15.0408 14.6207L15.468 14.1758L15.9129 13.7575L16.3845 13.3482L16.8651 12.9567L17.3723 12.5829L17.8973 12.227L18.4402 11.8888L19.0008 11.5684L19.5881 11.257L20.1932 10.9722L20.8161 10.7053L21.4657 10.4472L22.1332 10.2158L22.8184 10.0023L23.5392 9.80649L24.2689 9.63741L24.1443 10.0735L24.5091 9.7086ZM24.5091 9.7086L24.8384 10.0379L24.3756 10.1357L24.5091 9.7086Z" fill="#F1F1F1"/>
<path fill-rule="evenodd" clip-rule="evenodd" d="M24.3223 9.88649L22.0442 7.6084C14.5425 9.59283 10.5292 14.7363 8.42905 21.2146L10.716 23.5016C12.4691 16.694 16.4557 11.6306 24.3223 9.88649Z" fill="#F1F1F1"/>
<path d="M8.61589 2.98109L8.17985 2.85651L8.25104 2.61624L10.5291 0.329255L10.894 0.694105L8.61589 2.98109ZM8.17985 2.85651L8.14426 2.71413L8.25104 2.61624L8.17985 2.85651ZM22.2221 16.5873L21.9641 16.6496L21.3589 16.4449L20.7538 16.2314L20.1665 16L19.5792 15.7597L19.0097 15.5106L18.4401 15.2436L17.8884 14.9677L17.3367 14.6741L16.8028 14.3715L16.2777 14.0512L15.7616 13.713L15.2633 13.366L14.7738 13.0011L14.2933 12.6185L13.8306 12.2269L13.3767 11.8176L12.9407 11.3904L12.5136 10.9455L12.0953 10.4828L11.7038 10.0111L11.3211 9.51279L10.9563 8.99666L10.6003 8.47164L10.2622 7.91991L9.94181 7.35929L9.63925 6.77197L9.35449 6.16685L9.08753 5.54394L8.82946 4.90323L8.59809 4.24472L8.38452 3.55951L8.17985 2.85651L8.67818 2.73192L8.87396 3.41713L9.08753 4.08454L9.31 4.72525L9.55916 5.34817L9.81723 5.95328L10.102 6.5406L10.3956 7.11012L10.7071 7.66185L11.0364 8.19577L11.3745 8.7119L11.7305 9.21023L12.1042 9.69077L12.4869 10.1535L12.8873 10.5984L13.3055 11.0256L13.7238 11.4438L14.1687 11.8443L14.6226 12.2269L15.0853 12.5918L15.5658 12.9477L16.0553 13.2859L16.5536 13.6151L17.0608 13.9266L17.5859 14.2291L18.1198 14.5139L18.6626 14.7809L19.2143 15.0389L19.7839 15.2881L20.3534 15.5284L20.9318 15.7508L21.5191 15.9644L22.1242 16.1602L21.8573 16.2225L22.2221 16.5873ZM22.2221 16.5873L22.1153 16.6941L21.9641 16.6496L22.2221 16.5873ZM24.1443 13.9444L24.3845 13.8732L24.5091 14.3092L22.2221 16.5873L21.8573 16.2225L24.1443 13.9444ZM24.3845 13.8732L24.8206 13.9889L24.5091 14.3092L24.3845 13.8732ZM10.5291 0.329255L10.9652 0.462736L11.1342 1.17464L11.3211 1.87764L11.5347 2.54505L11.7572 3.19466L12.0063 3.82647L12.2644 4.44049L12.5492 5.02781L12.8428 5.58843L13.1543 6.14016L13.4835 6.66518L13.8306 7.17241L14.1954 7.66185L14.5692 8.12458L14.9607 8.57842L15.3701 9.00556L15.7972 9.42381L16.2332 9.82425L16.6871 10.198L17.1498 10.5628L17.6304 10.9099L18.1287 11.2392L18.6359 11.5506L19.152 11.8532L19.686 12.129L20.2288 12.4049L20.7894 12.6541L21.3589 12.8943L21.9463 13.1168L22.5425 13.3215L23.1476 13.5261L23.7616 13.7041L24.3845 13.8732L24.2599 14.3715L23.6192 14.2024L22.9963 14.0156L22.3734 13.8109L21.7683 13.5973L21.1721 13.366L20.5847 13.1257L20.0152 12.8676L19.4546 12.5918L18.9029 12.2981L18.3689 11.9956L17.8528 11.6752L17.3367 11.3281L16.8473 10.9722L16.3667 10.5984L15.8951 10.2069L15.4413 9.79755L15.0052 9.37041L14.587 8.92547L14.1776 8.45384L13.7861 7.9733L13.4123 7.46607L13.0564 6.94105L12.7182 6.39822L12.389 5.8376L12.0864 5.25028L11.8017 4.64516L11.5258 4.02225L11.2766 3.37264L11.0453 2.70523L10.8317 2.01112L10.6359 1.29922L10.4579 0.569522L10.894 0.694105L10.5291 0.329255ZM10.5291 0.329255L10.8673 0L10.9652 0.462736L10.5291 0.329255Z" fill="#F1F1F1"/>
<path fill-rule="evenodd" clip-rule="evenodd" d="M10.716 0.516113L8.42902 2.7942C10.4134 10.2959 15.5658 14.3092 22.0441 16.4004L24.3222 14.1223C17.5147 12.3604 12.4513 8.38263 10.716 0.516113Z" fill="#F1F1F1"/>
</svg>
