<svg width="160" height="25" viewBox="0 0 160 25" fill="none" xmlns="http://www.w3.org/2000/svg">
<path d="M7.09193 8.40194C8.09452 8.40194 8.90728 7.58918 8.90728 6.58659C8.90728 5.584 8.09452 4.77124 7.09193 4.77124C6.08934 4.77124 5.27658 5.584 5.27658 6.58659C5.27658 7.58918 6.08934 8.40194 7.09193 8.40194Z" fill="#00DEAF"/>
<path d="M7.09195 7.28955C7.48021 7.28955 7.79495 6.97481 7.79495 6.58655C7.79495 6.19829 7.48021 5.88354 7.09195 5.88354C6.70369 5.88354 6.38895 6.19829 6.38895 6.58655C6.38895 6.97481 6.70369 7.28955 7.09195 7.28955Z" fill="#F1F1F1"/>
<path d="M19.0786 8.40194C20.0812 8.40194 20.8939 7.58918 20.8939 6.58659C20.8939 5.584 20.0812 4.77124 19.0786 4.77124C18.076 4.77124 17.2632 5.584 17.2632 6.58659C17.2632 7.58918 18.076 8.40194 19.0786 8.40194Z" fill="#E22054"/>
<path d="M19.0786 7.28955C19.4669 7.28955 19.7816 6.97481 19.7816 6.58655C19.7816 6.19829 19.4669 5.88354 19.0786 5.88354C18.6904 5.88354 18.3756 6.19829 18.3756 6.58655C18.3756 6.97481 18.6904 7.28955 19.0786 7.28955Z" fill="#F1F1F1"/>
<path d="M7.09193 20.3619C8.09452 20.3619 8.90728 19.5491 8.90728 18.5466C8.90728 17.544 8.09452 16.7312 7.09193 16.7312C6.08934 16.7312 5.27658 17.544 5.27658 18.5466C5.27658 19.5491 6.08934 20.3619 7.09193 20.3619Z" fill="#E22054"/>
<path d="M7.09195 19.2495C7.48021 19.2495 7.79495 18.9348 7.79495 18.5465C7.79495 18.1583 7.48021 17.8435 7.09195 17.8435C6.70369 17.8435 6.38895 18.1583 6.38895 18.5465C6.38895 18.9348 6.70369 19.2495 7.09195 19.2495Z" fill="#F1F1F1"/>
<path d="M19.0786 20.3619C20.0812 20.3619 20.8939 19.5491 20.8939 18.5466C20.8939 17.544 20.0812 16.7312 19.0786 16.7312C18.076 16.7312 17.2632 17.544 17.2632 18.5466C17.2632 19.5491 18.076 20.3619 19.0786 20.3619Z" fill="#00DEAF"/>
<path d="M19.0786 19.2495C19.4669 19.2495 19.7816 18.9348 19.7816 18.5465C19.7816 18.1583 19.4669 17.8435 19.0786 17.8435C18.6904 17.8435 18.3756 18.1583 18.3756 18.5465C18.3756 18.9348 18.6904 19.2495 19.0786 19.2495Z" fill="#F1F1F1"/>
<path d="M17.4857 3.69447L15.1987 1.40748L15.5636 1.04263L17.8506 3.32962L17.9129 3.56989L17.4857 3.69447ZM17.8506 3.32962L17.9485 3.42751L17.9129 3.56989L17.8506 3.32962ZM3.8706 17.3007L4.23545 16.9359L3.97738 16.8736L4.5736 16.6778L5.16092 16.4642L5.74824 16.2418L6.31776 16.0015L6.87839 15.7523L7.43901 15.4943L7.98184 15.2273L8.51576 14.9425L9.03189 14.64L9.54802 14.3285L10.0464 13.9993L10.5358 13.6611L11.0163 13.3052L11.4791 12.9403L11.9329 12.5577L12.3689 12.1572L12.7961 11.739L13.2143 11.3118L13.6059 10.8669L13.9974 10.4042L14.3712 9.92362L14.7271 9.42529L15.0653 8.90916L15.3945 8.37523L15.706 7.8235L15.9996 7.25398L16.2755 6.66666L16.5425 6.06155L16.7827 5.43863L17.0141 4.79792L17.2277 4.13051L17.4145 3.4453L17.9129 3.56989L17.7171 4.27289L17.5035 4.9581L17.2633 5.61661L17.0141 6.25732L16.7471 6.88023L16.4624 7.48535L16.1509 8.07267L15.8306 8.63329L15.5013 9.18502L15.1454 9.71005L14.7805 10.2262L14.3979 10.7245L13.9974 11.1961L13.5881 11.6589L13.1609 12.1038L12.7249 12.531L12.271 12.9403L11.7994 13.3319L11.3278 13.7145L10.8383 14.0793L10.3311 14.4264L9.81498 14.7646L9.29885 15.0849L8.75603 15.3875L8.2132 15.6811L7.66148 15.957L7.09196 16.224L6.51354 16.4731L5.93512 16.7134L5.3389 16.9448L4.74268 17.1583L4.12866 17.363L3.8706 17.3007ZM4.12866 17.363L3.98628 17.4075L3.8706 17.3007L4.12866 17.363ZM1.95736 14.6578L4.23545 16.9359L3.8706 17.3007L1.59251 15.0226L1.7082 14.5866L1.95736 14.6578ZM1.59251 15.0226L1.27216 14.7023L1.7082 14.5866L1.59251 15.0226ZM15.5636 1.04263L15.1987 1.40748L15.6348 1.2829L15.4568 2.0126L15.2699 2.7245L15.0564 3.41861L14.825 4.08602L14.5669 4.73563L14.3 5.35854L14.0152 5.96366L13.7038 6.55098L13.3834 7.1116L13.0452 7.65443L12.6893 8.17946L12.3066 8.68669L11.924 9.16722L11.5147 9.63886L11.0964 10.0838L10.6515 10.5109L10.2065 10.9203L9.7349 11.3118L9.25436 11.6856L8.75603 12.0415L8.2488 12.3886L7.72377 12.7089L7.18984 13.0115L6.64702 13.3052L6.0864 13.581L5.50798 13.8391L4.92955 14.0793L4.33334 14.3107L3.71932 14.5243L3.1053 14.729L2.47349 14.9158L1.84168 15.0849L1.7082 14.5866L2.34001 14.4175L2.95403 14.2395L3.55914 14.0349L4.15536 13.8302L4.73378 13.6077L5.3033 13.3674L5.86393 13.1183L6.41565 12.8424L6.94068 12.5666L7.46571 12.264L7.97294 11.9525L8.46237 11.6233L8.9429 11.2762L9.41454 10.9114L9.86838 10.5376L10.3044 10.1372L10.7227 9.71894L11.132 9.2918L11.5236 8.83797L11.9062 8.37523L12.2621 7.8858L12.6092 7.37857L12.9385 6.85354L13.2588 6.30181L13.5525 5.74119L13.8283 5.15387L14.0953 4.53985L14.3356 3.90804L14.5669 3.25843L14.7716 2.59102L14.9585 1.88802L15.1365 1.17612L15.5636 1.04263ZM15.1365 1.17612L15.2343 0.713379L15.5636 1.04263L15.1365 1.17612Z" fill="#0062AD"/>
<path fill-rule="evenodd" clip-rule="evenodd" d="M15.3856 1.22949L17.6637 3.50758C15.6793 11.0093 10.5358 15.0226 4.05746 17.1138L1.77048 14.8357C8.57804 13.0738 13.6415 9.09601 15.3856 1.22949Z" fill="#020A4B"/>
<path d="M4.23544 8.49985L1.95735 10.7868L1.5925 10.422L3.87059 8.135L4.11975 8.0727L4.23544 8.49985ZM3.87059 8.135L3.97737 8.03711L4.11975 8.0727L3.87059 8.135ZM17.8506 22.115L17.4857 21.7501L17.4234 22.0082L17.2188 21.412L17.0052 20.8158L16.7827 20.2373L16.5513 19.6678L16.3022 19.1072L16.0441 18.5466L15.7683 18.0037L15.4835 17.4698L15.1898 16.9537L14.8784 16.4376L14.5491 15.9392L14.211 15.4498L13.855 14.9693L13.4902 14.5065L13.0986 14.0527L12.6982 13.6166L12.2888 13.1895L11.8528 12.7713L11.4079 12.3708L10.9451 11.9882L10.4646 11.6144L9.96625 11.2585L9.45902 10.9203L8.92509 10.5911L8.37337 10.2796L7.80385 9.98594L7.21653 9.71008L6.61141 9.44312L5.9885 9.20285L5.33889 8.97148L4.67148 8.75791L3.98627 8.57104L4.11975 8.0727L4.82276 8.26848L5.49906 8.48205L6.16647 8.72232L6.80719 8.97148L7.4301 9.23844L8.03522 9.52321L8.61364 9.82576L9.18316 10.1461L9.73488 10.4843L10.2599 10.8402L10.776 11.2051L11.2655 11.5877L11.746 11.9882L12.2087 12.3975L12.6448 12.8247L13.0808 13.2607L13.4902 13.7145L13.8817 14.1862L14.2644 14.6578L14.6292 15.1472L14.9763 15.6545L15.3144 16.1617L15.6348 16.6867L15.9373 17.2295L16.231 17.7724L16.5069 18.3241L16.7738 18.8936L17.023 19.4631L17.2633 20.0505L17.4946 20.6467L17.7082 21.2429L17.9129 21.848L17.8506 22.115ZM17.9129 21.848L17.9574 21.9993L17.8506 22.115L17.9129 21.848ZM15.1987 24.0282L17.4857 21.7501L17.8506 22.115L15.5636 24.3931L15.1364 24.2774L15.1987 24.0282ZM15.5636 24.3931L15.2521 24.7134L15.1364 24.2774L15.5636 24.3931ZM1.5925 10.422L1.95735 10.7868L1.83277 10.3508L2.56247 10.5199L3.27437 10.7156L3.96847 10.9292L4.63588 11.1606L5.28549 11.4186L5.90841 11.6856L6.51353 11.9704L7.10084 12.2818L7.66147 12.6022L8.20429 12.9403L8.72932 13.2963L9.23655 13.67L9.71709 14.0616L10.1798 14.4709L10.6337 14.8892L11.0608 15.3341L11.4701 15.779L11.8617 16.2507L12.2354 16.7312L12.5914 17.2295L12.9295 17.7368L13.2588 18.2618L13.5614 18.7957L13.855 19.3386L14.122 19.8992L14.3889 20.4776L14.6292 21.056L14.8606 21.6522L15.0742 22.2663L15.2699 22.8803L15.4568 23.5121L15.6348 24.1439L15.1364 24.2774L14.9674 23.6456L14.7805 23.0316L14.5847 22.4264L14.38 21.8302L14.1487 21.2518L13.9173 20.6823L13.6592 20.1217L13.3923 19.5699L13.1075 19.036L12.8139 18.5199L12.5024 18.0126L12.1732 17.5143L11.8261 17.0427L11.4612 16.571L11.0786 16.1172L10.6871 15.6812L10.2688 15.2629L9.84167 14.8536L9.38783 14.462L8.9162 14.0794L8.43566 13.7145L7.92843 13.3764L7.3945 13.0471L6.85168 12.7268L6.28216 12.4331L5.69484 12.1572L5.08972 11.8903L4.45791 11.65L3.8083 11.4186L3.13199 11.214L2.43788 11.0182L1.71708 10.8491L1.5925 10.422ZM1.71708 10.8491L1.26324 10.7512L1.5925 10.422L1.71708 10.8491Z" fill="#0062AD"/>
<path fill-rule="evenodd" clip-rule="evenodd" d="M1.77048 10.6L4.05746 8.3219C11.5591 10.3063 15.5725 15.4498 17.6637 21.9281L15.3856 24.2151C13.6237 17.4076 9.6459 12.3441 1.77048 10.6Z" fill="#020A4B"/>
<path d="M22.2911 8.49985L22.4157 8.0727L22.6559 8.135L24.9429 10.422L24.5781 10.7868L22.2911 8.49985ZM22.4157 8.0727L22.558 8.03711L22.6559 8.135L22.4157 8.0727ZM8.68484 22.115L8.62255 21.848L8.82722 21.2429L9.04079 20.6467L9.27216 20.0505L9.50352 19.4631L9.76159 18.8936L10.0286 18.3241L10.3044 17.7724L10.5981 17.2295L10.9006 16.6867L11.221 16.1617L11.5591 15.6545L11.9062 15.1472L12.271 14.6578L12.6448 14.1862L13.0452 13.7145L13.4546 13.2607L13.8817 12.8247L14.3267 12.3975L14.7894 11.9882L15.261 11.5877L15.7594 11.2051L16.2755 10.8402L16.8005 10.4843L17.3522 10.1461L17.9129 9.82576L18.5002 9.52321L19.1053 9.23844L19.7282 8.97148L20.3689 8.72232L21.0274 8.48205L21.7127 8.26848L22.4157 8.0727L22.5402 8.57104L21.855 8.75791L21.1876 8.97148L20.5469 9.20285L19.924 9.44312L19.3189 9.71008L18.7316 9.98594L18.162 10.2796L17.6103 10.5911L17.0764 10.9203L16.5603 11.2585L16.0619 11.6144L15.5814 11.9882L15.1187 12.3708L14.6737 12.7713L14.2466 13.1895L13.8283 13.6166L13.4279 14.0527L13.0452 14.5065L12.6804 14.9693L12.3244 15.4498L11.9863 15.9392L11.657 16.4376L11.3456 16.9537L11.043 17.4698L10.7583 18.0037L10.4913 18.5466L10.2243 19.1072L9.98406 19.6678L9.74379 20.2373L9.52132 20.8158L9.30775 21.412L9.11198 22.0082L9.04969 21.7501L8.68484 22.115ZM8.68484 22.115L8.56915 21.9993L8.62255 21.848L8.68484 22.115ZM11.3278 24.0282L11.399 24.2774L10.9629 24.3931L8.68484 22.115L9.04969 21.7501L11.3278 24.0282ZM11.399 24.2774L11.2833 24.7134L10.9629 24.3931L11.399 24.2774ZM24.9429 10.422L24.8094 10.8491L24.0975 11.0182L23.3945 11.214L22.7271 11.4186L22.0686 11.65L21.4457 11.8903L20.8317 12.1572L20.2444 12.4331L19.6837 12.7268L19.132 13.0471L18.607 13.3764L18.0997 13.7145L17.6103 14.0794L17.1476 14.462L16.6937 14.8536L16.2577 15.2629L15.8484 15.6812L15.4479 16.1172L15.0742 16.571L14.7093 17.0427L14.3623 17.5143L14.033 18.0126L13.7215 18.5199L13.419 19.036L13.1342 19.5699L12.8673 20.1217L12.6181 20.6823L12.3778 21.2518L12.1554 21.8302L11.9418 22.4264L11.746 23.0316L11.568 23.6456L11.399 24.2774L10.9006 24.1439L11.0697 23.5121L11.2566 22.8803L11.4613 22.2663L11.6748 21.6522L11.9062 21.056L12.1465 20.4776L12.4045 19.8992L12.6804 19.3386L12.974 18.7957L13.2766 18.2618L13.597 17.7368L13.944 17.2295L14.3 16.7312L14.6737 16.2507L15.0653 15.779L15.4746 15.3341L15.9017 14.8892L16.3467 14.4709L16.8183 14.0616L17.2989 13.67L17.8061 13.2963L18.3311 12.9403L18.8739 12.6022L19.4346 12.2818L20.0219 11.9704L20.627 11.6856L21.2499 11.4186L21.8995 11.1606L22.5669 10.9292L23.2521 10.7156L23.9729 10.5199L24.7026 10.3508L24.5781 10.7868L24.9429 10.422ZM24.9429 10.422L25.2722 10.7512L24.8094 10.8491L24.9429 10.422Z" fill="#0062AD"/>
<path fill-rule="evenodd" clip-rule="evenodd" d="M24.756 10.6L22.478 8.3219C14.9763 10.3063 10.9629 15.4498 8.86282 21.9281L11.1498 24.2151C12.9029 17.4076 16.8895 12.3441 24.756 10.6Z" fill="#020A4B"/>
<path d="M9.0497 3.69447L8.61366 3.56989L8.68485 3.32962L10.9629 1.04263L11.3278 1.40748L9.0497 3.69447ZM8.61366 3.56989L8.57806 3.42751L8.68485 3.32962L8.61366 3.56989ZM22.6559 17.3007L22.3979 17.363L21.7928 17.1583L21.1876 16.9448L20.6003 16.7134L20.013 16.4731L19.4435 16.224L18.874 15.957L18.3222 15.6811L17.7705 15.3875L17.2366 15.0849L16.7115 14.7646L16.1954 14.4264L15.6971 14.0793L15.2077 13.7145L14.7271 13.3319L14.2644 12.9403L13.8105 12.531L13.3745 12.1038L12.9474 11.6589L12.5291 11.1961L12.1376 10.7245L11.7549 10.2262L11.3901 9.71005L11.0341 9.18502L10.696 8.63329L10.3756 8.07267L10.0731 7.48535L9.7883 6.88023L9.52133 6.25732L9.26327 5.61661L9.0319 4.9581L8.81833 4.27289L8.61366 3.56989L9.11199 3.4453L9.30776 4.13051L9.52133 4.79792L9.7438 5.43863L9.99297 6.06155L10.251 6.66666L10.5358 7.25398L10.8295 7.8235L11.1409 8.37523L11.4702 8.90916L11.8083 9.42529L12.1643 9.92362L12.538 10.4042L12.9207 10.8669L13.3211 11.3118L13.7394 11.739L14.1576 12.1572L14.6025 12.5577L15.0564 12.9403L15.5191 13.3052L15.9996 13.6611L16.4891 13.9993L16.9874 14.3285L17.4946 14.64L18.0197 14.9425L18.5536 15.2273L19.0964 15.4943L19.6481 15.7523L20.2177 16.0015L20.7872 16.2418L21.3656 16.4642L21.9529 16.6778L22.558 16.8736L22.2911 16.9359L22.6559 17.3007ZM22.6559 17.3007L22.5491 17.4075L22.3979 17.363L22.6559 17.3007ZM24.5781 14.6578L24.8183 14.5866L24.9429 15.0226L22.6559 17.3007L22.2911 16.9359L24.5781 14.6578ZM24.8183 14.5866L25.2544 14.7023L24.9429 15.0226L24.8183 14.5866ZM10.9629 1.04263L11.399 1.17612L11.5681 1.88802L11.7549 2.59102L11.9685 3.25843L12.191 3.90804L12.4401 4.53985L12.6982 5.15387L12.983 5.74119L13.2766 6.30181L13.5881 6.85354L13.9173 7.37857L14.2644 7.8858L14.6292 8.37523L15.003 8.83797L15.3945 9.2918L15.8039 9.71894L16.231 10.1372L16.6671 10.5376L17.1209 10.9114L17.5836 11.2762L18.0642 11.6233L18.5625 11.9525L19.0697 12.264L19.5859 12.5666L20.1198 12.8424L20.6626 13.1183L21.2232 13.3674L21.7928 13.6077L22.3801 13.8302L22.9763 14.0349L23.5814 14.2395L24.1954 14.4175L24.8183 14.5866L24.6938 15.0849L24.053 14.9158L23.4301 14.729L22.8072 14.5243L22.2021 14.3107L21.6059 14.0793L21.0186 13.8391L20.449 13.581L19.8884 13.3052L19.3367 13.0115L18.8028 12.7089L18.2866 12.3886L17.7705 12.0415L17.2811 11.6856L16.8005 11.3118L16.3289 10.9203L15.8751 10.5109L15.439 10.0838L15.0208 9.63886L14.6114 9.16722L14.2199 8.68669L13.8461 8.17946L13.4902 7.65443L13.152 7.1116L12.8228 6.55098L12.5202 5.96366L12.2355 5.35854L11.9596 4.73563L11.7104 4.08602L11.4791 3.41861L11.2655 2.7245L11.0697 2.0126L10.8917 1.2829L11.3278 1.40748L10.9629 1.04263ZM10.9629 1.04263L11.3011 0.713379L11.399 1.17612L10.9629 1.04263Z" fill="#0062AD"/>
<path fill-rule="evenodd" clip-rule="evenodd" d="M11.1498 1.22949L8.86282 3.50758C10.8473 11.0093 15.9996 15.0226 22.478 17.1138L24.756 14.8357C17.9485 13.0738 12.8851 9.09601 11.1498 1.22949Z" fill="#020A4B"/>
<path d="M31.3158 6.552H33.6038V15.032H39.7478V17H31.3158V6.552ZM43.9945 17H41.7065V6.552H43.9945V17ZM54.5966 6.552H56.9006V17H54.9166L49.6046 10.536H49.5886V17H47.2846V6.552H49.2526L54.5806 13.032H54.5966V6.552ZM70.0148 8.104L68.4948 9.528C67.5828 8.696 66.1588 8.216 65.0708 8.216C63.0708 8.216 61.6788 9.832 61.6788 11.784C61.6788 13.608 62.8948 15.336 65.2308 15.336C66.1748 15.336 67.2308 15.08 67.8868 14.632V12.872H64.7348V10.984H70.0308V15.672C68.6708 16.68 66.7668 17.304 65.1348 17.304C61.7908 17.304 59.2948 14.84 59.2948 11.768C59.2948 8.712 61.8228 6.232 65.0548 6.232C66.7028 6.232 68.5108 6.888 70.0148 8.104ZM80.0433 6.552H82.3473V13.24C82.3473 15.848 80.3313 17.32 77.5633 17.32C74.8753 17.32 72.8113 15.848 72.8113 13.24V6.552H75.1153V13.24C75.1153 14.616 76.2193 15.352 77.5633 15.352C78.9873 15.352 80.0433 14.616 80.0433 13.24V6.552ZM83.7973 17L88.6453 6.552H90.6133L95.4613 17H92.9493L91.9893 14.792H87.1573L86.2133 17H83.7973ZM89.5253 9.288L87.9413 12.984H91.2053L89.6213 9.288H89.5253ZM97.3002 6.552H99.5882V15.032H105.732V17H97.3002V6.552ZM109.979 17H107.691V6.552H109.979V17ZM120.581 6.552H122.885V17H120.901L115.589 10.536H115.573V17H113.269V6.552H115.237L120.565 13.032H120.581V6.552ZM128.479 6.552V11.096L133.263 6.552H136.143L131.791 10.632L136.927 17H134.031L130.159 12.136L128.479 13.72V17H126.175V6.552H128.479ZM140.36 17L145.208 6.552H147.176L152.024 17H149.512L148.552 14.792H143.72L142.776 17H140.36ZM146.088 9.288L144.504 12.984H147.768L146.184 9.288H146.088ZM156.151 17H153.863V6.552H156.151V17Z" fill="#020A4B"/>
</svg>
